<svg width="754" height="754" viewBox="0 0 754 754" fill="none" xmlns="http://www.w3.org/2000/svg">
<rect x="238.32" y="482.844" width="39" height="45.7783" transform="rotate(45 238.32 482.844)" fill="white"/>
<path d="M69.3109 680.6C55.9657 667.255 55.9657 645.618 69.3109 632.273L189.466 512.118C198.839 502.745 214.035 502.745 223.407 512.118L237.793 526.504C247.166 535.876 247.166 551.072 237.793 560.445L117.638 680.6C104.293 693.946 82.6561 693.946 69.3109 680.6V680.6Z" fill="white"/>
<path d="M375.147 285.048L327.918 335.002L316.147 322.552L375.147 260.147V285.048Z" fill="white"/>
<path d="M333.33 329.355C319.775 340.636 311.147 357.634 311.147 376.648C311.147 410.613 338.682 438.148 372.647 438.148C406.613 438.148 434.147 410.613 434.147 376.648C434.147 359.39 427.038 343.792 415.59 332.623L426.992 320.396C441.284 334.455 450.147 354.016 450.147 375.648C450.147 418.45 415.449 453.148 372.647 453.148C329.845 453.148 295.147 418.45 295.147 375.648C295.147 336.555 324.091 304.223 361.718 298.912L333.33 329.355Z" fill="white"/>
<circle cx="397.147" cy="308.147" r="9" fill="white"/>
<path d="M334.358 17.5734C357.789 -5.85782 395.779 -5.85778 419.21 17.5734L735.994 334.358C759.426 357.789 759.426 395.779 735.994 419.21L419.21 735.994C395.779 759.426 357.789 759.426 334.358 735.994L17.5734 419.21C-5.85778 395.779 -5.85782 357.789 17.5734 334.358L334.358 17.5734ZM31.4425 376.697L376.51 721.766L721.578 376.697L376.51 31.6291L31.4425 376.697Z" fill="white"/>
<path d="M377.147 183.147C478.215 183.147 560.147 265.079 560.147 366.147C560.147 467.215 478.215 549.147 377.147 549.147C276.079 549.147 194.147 467.215 194.147 366.147C194.147 265.079 276.079 183.147 377.147 183.147ZM376.647 214.147C292.976 214.147 225.147 281.976 225.147 365.647C225.147 449.318 292.976 517.147 376.647 517.147C460.318 517.147 528.147 449.318 528.147 365.647C528.147 281.976 460.318 214.147 376.647 214.147Z" fill="white"/>
<path d="M410.147 269.914H460.147V295.595H410.147V269.914Z" fill="white"/>
<path d="M435.262 310.361L410.147 295.595H460.377L435.262 310.361Z" fill="white"/>
<path d="M435.262 310.361L410.147 295.595H460.377L435.262 310.361Z" fill="white"/>
<path d="M435.262 255.147L460.377 269.914H410.147L435.262 255.147Z" fill="white"/>
<path d="M435.262 255.147L460.377 269.914H410.147L435.262 255.147Z" fill="white"/>
<path d="M535.147 128.7H585.147V154.381H535.147V128.7Z" fill="white"/>
<path d="M560.262 169.147L535.147 154.381H585.377L560.262 169.147Z" fill="white"/>
<path d="M560.262 169.147L535.147 154.381H585.377L560.262 169.147Z" fill="white"/>
<path d="M560.262 114.147L585.377 128.914H535.147L560.262 114.147Z" fill="white"/>
<path d="M560.262 114.147L585.377 128.914H535.147L560.262 114.147Z" fill="white"/>
<path d="M597.147 204.7H647.147V230.381H597.147V204.7Z" fill="white"/>
<path d="M622.262 245.147L597.147 230.381H647.377L622.262 245.147Z" fill="white"/>
<path d="M622.262 245.147L597.147 230.381H647.377L622.262 245.147Z" fill="white"/>
<path d="M622.262 190.147L647.377 204.914H597.147L622.262 190.147Z" fill="white"/>
<path d="M622.262 190.147L647.377 204.914H597.147L622.262 190.147Z" fill="white"/>
<path d="M647.147 276.7H697.147V302.381H647.147V276.7Z" fill="white"/>
<path d="M672.262 317.147L647.147 302.381H697.377L672.262 317.147Z" fill="white"/>
<path d="M672.262 317.147L647.147 302.381H697.377L672.262 317.147Z" fill="white"/>
<path d="M672.262 262.147L697.377 276.914H647.147L672.262 262.147Z" fill="white"/>
<path d="M672.262 262.147L697.377 276.914H647.147L672.262 262.147Z" fill="white"/>
<path d="M591.147 352.7H641.147V378.381H591.147V352.7Z" fill="white"/>
<path d="M616.262 393.147L591.147 378.381H641.377L616.262 393.147Z" fill="white"/>
<path d="M616.262 393.147L591.147 378.381H641.377L616.262 393.147Z" fill="white"/>
<path d="M616.262 338.147L641.377 352.914H591.147L616.262 338.147Z" fill="white"/>
<path d="M616.262 338.147L641.377 352.914H591.147L616.262 338.147Z" fill="white"/>
<path d="M541.147 428.7H591.147V454.381H541.147V428.7Z" fill="white"/>
<path d="M566.262 469.147L541.147 454.381H591.377L566.262 469.147Z" fill="white"/>
<path d="M566.262 469.147L541.147 454.381H591.377L566.262 469.147Z" fill="white"/>
<path d="M566.262 414.147L591.377 428.914H541.147L566.262 414.147Z" fill="white"/>
<path d="M566.262 414.147L591.377 428.914H541.147L566.262 414.147Z" fill="white"/>
<path d="M450.147 427.7H500.147V453.381H450.147V427.7Z" fill="white"/>
<path d="M475.262 468.147L450.147 453.381H500.377L475.262 468.147Z" fill="white"/>
<path d="M475.262 468.147L450.147 453.381H500.377L475.262 468.147Z" fill="white"/>
<path d="M475.262 413.147L500.377 427.914H450.147L475.262 413.147Z" fill="white"/>
<path d="M475.262 413.147L500.377 427.914H450.147L475.262 413.147Z" fill="white"/>
<path d="M496.147 359.7H546.147V385.381H496.147V359.7Z" fill="white"/>
<path d="M521.262 400.147L496.147 385.381H546.377L521.262 400.147Z" fill="white"/>
<path d="M521.262 400.147L496.147 385.381H546.377L521.262 400.147Z" fill="white"/>
<path d="M521.262 345.147L546.377 359.914H496.147L521.262 345.147Z" fill="white"/>
<path d="M521.262 345.147L546.377 359.914H496.147L521.262 345.147Z" fill="white"/>
<path d="M546.147 282.7H596.147V308.381H546.147V282.7Z" fill="white"/>
<path d="M571.262 323.147L546.147 308.381H596.377L571.262 323.147Z" fill="white"/>
<path d="M571.262 323.147L546.147 308.381H596.377L571.262 323.147Z" fill="white"/>
<path d="M571.262 268.147L596.377 282.914H546.147L571.262 268.147Z" fill="white"/>
<path d="M571.262 268.147L596.377 282.914H546.147L571.262 268.147Z" fill="white"/>
<path d="M460.147 204.7H510.147V230.381H460.147V204.7Z" fill="white"/>
<path d="M485.262 245.147L460.147 230.381H510.377L485.262 245.147Z" fill="white"/>
<path d="M485.262 245.147L460.147 230.381H510.377L485.262 245.147Z" fill="white"/>
<path d="M485.262 190.147L510.377 204.914H460.147L485.262 190.147Z" fill="white"/>
<path d="M485.262 190.147L510.377 204.914H460.147L485.262 190.147Z" fill="white"/>
<rect x="477.764" y="222.804" width="11.3692" height="55.287" transform="rotate(40 477.764 222.804)" fill="white"/>
<rect x="548.224" y="143.773" width="11.3692" height="75.9829" transform="rotate(44 548.224 143.773)" fill="white"/>
<rect x="616.53" y="219.147" width="11.3692" height="75.9829" transform="rotate(33 616.53 219.147)" fill="white"/>
<rect x="560.147" y="158.045" width="11.3692" height="75.9829" transform="rotate(-44 560.147 158.045)" fill="white"/>
<rect x="496.147" y="231.045" width="11.3692" height="75.9829" transform="rotate(-44 496.147 231.045)" fill="white"/>
<rect x="571.147" y="313.045" width="11.3692" height="75.9829" transform="rotate(-44 571.147 313.045)" fill="white"/>
<rect x="624.147" y="237.045" width="11.3692" height="75.9829" transform="rotate(-44 624.147 237.045)" fill="white"/>
<rect x="515.147" y="390.045" width="11.3692" height="75.9829" transform="rotate(-44 515.147 390.045)" fill="white"/>
<rect x="521.53" y="358.147" width="11.3692" height="75.9829" transform="rotate(33 521.53 358.147)" fill="white"/>
<rect x="566.53" y="293.147" width="11.3692" height="75.9829" transform="rotate(33 566.53 293.147)" fill="white"/>
</svg>
